<svg width="18" height="18" viewBox="0 0 18 18" fill="none" xmlns="http://www.w3.org/2000/svg">
<g clip-path="url(#clip0_10_81)">
<path d="M9.8325 4.29L9.405 6.4575C9.315 6.9 9.435 7.3575 9.72 7.7025C10.005 8.0475 10.425 8.25 10.875 8.25H15V9.06L13.0725 13.5H7.005C6.87 13.5 6.75 13.38 6.75 13.245V7.365L9.8325 4.29ZM10.5 1.5L5.6925 6.3075C5.4075 6.5925 5.25 6.975 5.25 7.3725V13.245C5.25 14.2125 6.0375 15 7.005 15H13.08C13.6125 15 14.1 14.7225 14.37 14.2725L16.3725 9.66C16.455 9.4725 16.5 9.27 16.5 9.06V8.25C16.5 7.425 15.825 6.75 15 6.75H10.875L11.565 3.2625C11.6025 3.0975 11.58 2.9175 11.505 2.7675C11.3325 2.43 11.115 2.1225 10.845 1.8525L10.5 1.5ZM3 6.75H1.5V15H3C3.4125 15 3.75 14.6625 3.75 14.25V7.5C3.75 7.0875 3.4125 6.75 3 6.75Z" fill="#323232"/>
</g>
<defs>
<clipPath id="clip0_10_81">
<rect width="18" height="18" fill="white"/>
</clipPath>
</defs>
</svg>
